<?xml version="1.0" standalone="no"?>
<!DOCTYPE svg PUBLIC "-//W3C//DTD SVG 20010904//EN"
 "http://www.w3.org/TR/2001/REC-SVG-20010904/DTD/svg10.dtd">
<svg version="1.0" xmlns="http://www.w3.org/2000/svg"
 width="230.000000pt" height="300.000000pt" viewBox="0 0 230.000000 244.000000"
 preserveAspectRatio="xMidYMid meet">

<g transform="translate(0.000000,244.000000) scale(0.100000,-0.100000)"
fill="#000000" stroke="none">
<path d="M1230 2291 c0 -25 119 -69 131 -49 11 17 3 23 -61 47 -67 26 -70 26
-70 2z"/>
<path d="M1440 2256 c-28 -7 -46 -17 -48 -28 -3 -15 5 -16 71 -11 130 10 185
-38 217 -189 19 -93 42 -154 78 -213 36 -57 82 -115 93 -115 20 0 20 30 -1 52
-65 70 -112 172 -136 296 -17 88 -32 120 -78 159 -54 48 -128 67 -196 49z"/>
<path d="M1052 2228 c3 -7 22 -18 44 -25 116 -34 216 -64 229 -69 10 -4 15 0
15 15 0 17 -17 26 -112 56 -115 36 -183 45 -176 23z"/>
<path d="M950 2141 c0 -16 9 -21 48 -26 68 -10 195 -42 254 -66 28 -11 57 -18
65 -15 53 21 -63 69 -252 106 -122 24 -115 24 -115 1z"/>
<path d="M1424 2141 c-65 -40 -68 -119 -13 -294 34 -105 60 -149 79 -131 7 7
3 27 -16 70 -33 75 -64 195 -64 250 0 34 5 47 26 63 35 27 87 27 112 0 12 -12
26 -53 35 -106 11 -58 31 -116 63 -181 38 -79 60 -110 129 -179 46 -46 89 -83
95 -83 23 0 22 31 -1 47 -43 29 -133 129 -167 186 -38 63 -77 172 -87 243 -4
27 -14 61 -21 76 -28 55 -112 75 -170 39z"/>
<path d="M1769 2133 c-6 -40 37 -207 57 -224 29 -24 36 5 16 57 -11 27 -23 69
-27 94 -10 67 -15 80 -31 80 -8 0 -14 -3 -15 -7z"/>
<path d="M880 2046 c0 -21 6 -23 88 -31 69 -7 74 -6 70 11 -4 21 -37 31 -110
33 -36 1 -48 -3 -48 -13z"/>
<path d="M1476 2052 c-9 -15 13 -127 37 -195 31 -85 86 -181 139 -242 73 -85
171 -165 202 -165 26 0 18 24 -15 44 -56 33 -167 146 -209 212 -51 81 -77 145
-105 259 -21 83 -35 109 -49 87z"/>
<path d="M1097 2023 c-17 -17 -3 -31 41 -43 26 -7 84 -28 130 -47 46 -20 86
-33 89 -30 22 23 -52 66 -184 107 -75 23 -68 22 -76 13z"/>
<path d="M855 1950 c-12 -20 5 -26 105 -38 117 -14 229 -50 339 -108 56 -29
88 -41 94 -35 17 17 -9 37 -109 85 -150 74 -407 131 -429 96z"/>
<path d="M860 1850 c-25 -16 1 -27 92 -40 200 -27 362 -107 512 -255 94 -92
149 -175 206 -309 30 -70 56 -89 47 -33 -13 80 -114 254 -201 346 -120 126
-295 231 -451 269 -95 24 -187 33 -205 22z"/>
<path d="M876 1741 c-8 -13 3 -19 52 -27 51 -8 79 1 63 19 -12 16 -107 22
-115 8z"/>
<path d="M1082 1694 c2 -8 33 -28 69 -43 209 -88 384 -289 450 -517 33 -112
33 -287 0 -394 -30 -97 -79 -185 -142 -254 -58 -63 -183 -158 -195 -148 -5 4
-2 -2 6 -12 14 -18 14 -19 -6 -8 -16 8 -26 8 -41 -3 -11 -8 -23 -12 -27 -10
-3 3 -4 2 -1 -2 5 -7 -25 -32 -39 -33 -6 0 -1 7 10 16 18 14 18 15 -6 8 -14
-4 -27 -10 -30 -13 -8 -11 -164 -7 -172 4 -5 6 -8 6 -8 -2 0 -7 -4 -13 -10
-13 -5 0 -10 7 -10 16 0 11 -6 14 -22 8 -13 -3 -20 -3 -16 1 10 10 -24 45 -44
45 -10 0 -17 3 -15 8 4 14 -41 63 -48 51 -10 -15 14 -57 36 -64 9 -3 20 -12
23 -20 3 -8 12 -15 21 -15 8 0 15 -4 15 -9 0 -12 57 -34 69 -27 5 3 11 0 13
-6 6 -18 140 -17 161 0 9 8 21 11 27 7 14 -8 70 14 70 27 0 6 9 8 20 5 11 -3
30 3 42 13 13 9 39 25 58 35 45 23 100 67 100 80 0 6 -4 4 -9 -4 -6 -9 -11
-10 -15 -2 -4 6 -1 12 6 12 7 1 18 2 24 3 13 1 59 51 94 101 78 114 120 254
120 400 0 320 -184 604 -482 745 -71 34 -101 38 -96 14z m328 -1288 c0 -3 -4
-8 -10 -11 -5 -3 -10 -1 -10 4 0 6 5 11 10 11 6 0 10 -2 10 -4z m-50 -39 c-14
-8 -27 -12 -30 -10 -7 6 23 23 40 23 8 0 4 -6 -10 -13z m-291 -113 c10 -9 -55
-3 -69 6 -10 6 -2 7 25 3 22 -3 42 -7 44 -9z"/>
<path d="M1500 1659 c0 -15 33 -62 94 -133 46 -54 196 -176 216 -176 4 0 10 7
14 15 3 10 -11 26 -47 48 -67 44 -152 126 -206 200 -38 52 -71 74 -71 46z"/>
<path d="M856 1641 c-9 -14 -4 -16 117 -40 132 -27 231 -80 336 -177 65 -61
82 -72 87 -59 9 22 -79 112 -168 171 -37 25 -103 58 -146 74 -87 32 -215 49
-226 31z"/>
<path d="M852 1534 c2 -15 15 -20 53 -25 28 -3 62 -9 78 -13 23 -7 27 -5 27
12 0 25 -13 30 -96 38 -61 6 -66 6 -62 -12z"/>
<path d="M1020 1506 c0 -13 5 -17 19 -13 12 3 18 0 15 -7 -2 -6 17 -22 43 -35
119 -58 216 -160 281 -298 36 -78 36 -79 37 -213 0 -130 -1 -137 -29 -195 -17
-33 -30 -66 -29 -72 0 -7 -3 -10 -8 -7 -5 3 -9 0 -9 -6 0 -6 -21 -31 -46 -56
-25 -26 -40 -43 -32 -38 10 6 10 4 -1 -10 -8 -9 -20 -15 -27 -12 -8 3 -11 0
-8 -8 3 -7 -2 -16 -12 -20 -11 -4 -15 -2 -11 8 4 10 -4 9 -32 -5 -21 -10 -49
-21 -64 -24 -15 -4 -27 -13 -27 -21 0 -8 -4 -14 -10 -14 -5 0 -10 5 -10 11 0
8 -12 10 -35 6 -21 -3 -33 -2 -30 4 4 5 1 9 -5 9 -6 0 -17 15 -25 33 -24 57 1
110 57 122 127 28 218 128 231 254 12 117 -39 248 -131 332 -56 52 -125 93
-136 82 -15 -15 -3 -33 32 -50 54 -25 141 -118 171 -182 22 -48 26 -69 26
-146 -1 -104 -11 -131 -78 -192 -29 -27 -63 -46 -99 -57 -53 -15 -121 -67 -99
-74 6 -2 11 -8 11 -13 0 -4 -7 -6 -15 -3 -11 5 -15 -2 -15 -26 0 -46 33 -94
77 -113 35 -16 42 -15 101 1 34 10 71 25 81 34 11 9 22 14 24 11 19 -18 183
138 172 164 -2 8 0 11 5 8 6 -3 13 2 16 12 3 10 12 30 20 44 7 15 20 53 29 85
46 177 -19 393 -164 542 -71 74 -174 142 -218 145 -16 1 -31 7 -35 12 -4 6 -8
2 -8 -9z"/>
<path d="M882 1434 c2 -11 12 -19 23 -20 11 0 27 -3 35 -7 8 -4 34 -13 57 -21
23 -8 67 -31 98 -50 61 -40 75 -43 75 -21 0 19 -89 78 -159 105 -48 19 -53 19
-47 3 6 -16 6 -16 -11 -1 -10 9 -31 20 -46 24 -25 6 -28 4 -25 -12z"/>
<path d="M1430 1290 c0 -6 11 -32 24 -58 33 -65 66 -176 66 -222 0 -58 11
-100 26 -100 19 0 18 83 -1 173 -18 84 -79 217 -100 217 -8 0 -15 -5 -15 -10z"/>
<path d="M1227 1233 c-4 -3 1 -18 10 -32 9 -14 31 -53 47 -86 28 -56 30 -68
31 -170 0 -94 -3 -118 -23 -165 -30 -70 -111 -148 -182 -175 -57 -22 -68 -31
-52 -47 7 -7 18 -6 33 3 13 7 30 14 37 15 7 1 34 16 61 33 98 63 171 205 171
331 0 71 -32 177 -73 248 -30 49 -45 61 -60 45z"/>
<path d="M1117 1023 c-4 -3 -4 -30 -1 -59 11 -91 -27 -155 -107 -178 -93 -28
-130 -57 -168 -133 -26 -52 -27 -124 -2 -178 23 -51 85 -107 108 -98 10 4 14
2 10 -4 -4 -6 12 -16 38 -23 65 -18 174 9 156 39 -7 10 -14 10 -41 -4 -39 -20
-117 -13 -163 16 -17 10 -35 15 -41 12 -6 -3 -8 -3 -4 2 4 4 -1 20 -11 34 -75
106 -27 259 91 292 67 18 107 41 136 79 23 29 28 47 30 110 3 57 0 79 -10 88
-8 6 -18 9 -21 5z"/>
<path d="M1716 788 c-10 -51 -29 -119 -42 -150 -26 -61 -30 -88 -14 -88 25 0
83 163 95 268 6 50 4 62 -7 62 -9 0 -20 -29 -32 -92z"/>
<path d="M1521 818 c-5 -13 -21 -55 -36 -95 -27 -74 -107 -191 -150 -219 -14
-9 -23 -19 -20 -23 2 -4 -1 -8 -8 -8 -7 0 -39 -16 -71 -36 -33 -20 -63 -34
-68 -31 -4 3 -8 0 -8 -6 0 -6 15 -10 34 -8 19 1 33 5 30 9 -2 4 3 10 12 13 10
4 13 2 8 -6 -4 -6 15 4 42 22 27 19 51 38 52 42 2 4 9 5 15 1 7 -4 8 0 4 11
-4 9 -3 15 2 12 20 -13 147 154 137 180 -3 8 -2 13 3 10 11 -7 38 60 47 114 7
44 -10 57 -25 18z"/>
<path d="M1833 827 c-5 -6 -15 -41 -22 -77 -24 -127 -84 -256 -168 -367 -14
-18 -22 -37 -17 -44 5 -8 2 -10 -8 -6 -10 3 -24 -3 -35 -15 -10 -12 -12 -18
-5 -14 6 4 12 3 12 -2 0 -15 -28 -34 -39 -27 -7 3 -8 0 -5 -9 6 -16 -10 -23
-19 -8 -2 4 -3 2 -1 -5 3 -12 -27 -43 -41 -43 -4 0 -1 7 6 17 13 15 12 15 -8
2 -22 -13 -32 -39 -15 -39 15 0 57 33 120 94 63 60 118 127 93 111 -9 -5 -12
-3 -9 6 3 8 12 13 21 13 9 -1 13 4 10 12 -2 7 5 19 17 26 25 15 83 135 74 150
-4 6 -3 8 3 5 10 -6 48 117 57 185 5 39 -5 57 -21 35z m-179 -461 c-3 -9 -10
-16 -15 -16 -5 0 -4 9 3 20 14 22 21 20 12 -4z"/>
<path d="M809 787 c-50 -52 -77 -108 -85 -176 -3 -18 -5 -36 -6 -40 -3 -24 4
-79 12 -91 7 -12 12 -12 22 -2 9 9 9 12 0 12 -7 0 -12 5 -12 11 0 5 3 8 8 6 4
-3 8 29 8 72 1 59 6 84 24 114 12 20 20 44 17 52 -4 9 -1 12 7 9 18 -7 42 24
29 37 -7 7 -15 6 -24 -4z"/>
<path d="M1926 792 c-3 -5 -8 -29 -12 -53 -3 -24 -15 -73 -26 -109 -25 -80
-104 -241 -113 -232 -4 4 -5 0 -3 -9 1 -9 -8 -26 -22 -37 -14 -12 -19 -21 -12
-22 6 0 12 -5 12 -11 0 -5 -4 -7 -10 -4 -5 3 -10 1 -10 -4 0 -19 19 -12 32 12
7 12 11 25 10 30 -1 4 5 7 14 7 8 0 13 4 10 9 -4 5 -3 11 2 13 19 8 52 67 45
84 -4 11 -3 15 4 11 19 -12 98 205 106 287 2 28 -15 46 -27 28z m-156 -446 c0
-3 -4 -8 -10 -11 -5 -3 -10 -1 -10 4 0 6 5 11 10 11 6 0 10 -2 10 -4z"/>
<path d="M2022 746 c-9 -72 -49 -189 -100 -296 -25 -52 -45 -96 -44 -97 1 -2
-7 -12 -19 -24 -13 -13 -18 -27 -14 -40 7 -21 -10 -27 -18 -6 -4 8 -6 9 -6 0
-1 -6 -14 -26 -31 -44 -21 -23 -27 -36 -19 -44 7 -7 22 4 49 35 22 25 40 51
40 58 0 6 5 12 11 12 8 0 7 5 -1 15 -11 13 -10 14 4 9 15 -6 22 9 17 38 0 4 7
4 16 1 11 -4 14 -3 9 5 -4 7 -3 12 2 12 10 0 37 57 31 62 -2 2 6 17 17 33 28
40 67 161 61 190 -2 14 -1 22 4 20 10 -7 16 4 20 39 3 21 -1 30 -12 31 -9 2
-16 -2 -17 -9z m-212 -516 c-12 -16 -25 -30 -30 -30 -4 0 4 14 18 30 15 17 28
30 30 30 2 0 -6 -13 -18 -30z"/>
<path d="M626 651 c-21 -91 -21 -121 0 -121 13 0 14 -3 5 -14 -14 -17 11 -116
35 -140 8 -8 14 -20 14 -26 0 -22 62 -89 82 -87 18 1 18 2 2 14 -10 7 -14 13
-10 13 4 0 -7 15 -24 33 -17 17 -33 42 -36 54 -4 13 -9 21 -13 19 -4 -3 -7 3
-8 12 -1 9 -8 42 -16 72 -14 54 -12 97 8 203 6 30 4 37 -8 37 -11 0 -20 -21
-31 -69z m108 -347 c3 -8 2 -12 -4 -9 -6 3 -10 10 -10 16 0 14 7 11 14 -7z"/>
<path d="M2110 668 c-6 -24 -15 -56 -20 -72 -14 -40 -12 -56 4 -56 18 0 29 31
20 56 -4 11 -3 16 2 11 9 -9 36 81 28 95 -11 18 -24 6 -34 -34z"/>
<path d="M2205 630 c-3 -11 -3 -25 1 -31 4 -8 3 -9 -4 -5 -11 7 -14 -1 -16
-51 -1 -10 -7 -24 -13 -31 -7 -7 -13 -20 -13 -28 0 -8 -9 -32 -20 -54 -11 -22
-17 -47 -13 -57 3 -10 2 -15 -2 -11 -11 10 -38 -29 -30 -42 3 -6 2 -10 -3 -10
-5 0 -12 -9 -15 -20 -3 -13 0 -20 10 -20 8 0 12 4 9 9 -3 5 0 14 8 20 35 29
143 307 132 338 -8 19 -24 16 -31 -7z"/>
<path d="M517 604 c-10 -11 -9 -56 4 -114 16 -73 31 -50 27 40 -3 67 -13 92
-31 74z"/>
<path d="M2280 515 c-11 -26 -20 -51 -20 -56 0 -6 -7 -23 -15 -38 -18 -37 -26
-79 -15 -86 5 -3 16 8 25 24 17 35 19 45 5 36 -5 -3 -10 1 -10 10 0 9 4 14 9
11 13 -8 54 81 47 100 -3 8 -2 12 4 9 6 -3 10 1 10 9 0 34 -22 24 -40 -19z"/>
<path d="M2048 468 c-7 -18 -11 -36 -10 -40 1 -5 -2 -8 -6 -8 -5 0 -19 -24
-33 -52 -13 -29 -27 -55 -32 -56 -4 -2 -12 -13 -19 -25 -10 -21 -10 -21 7 -7
17 14 18 14 6 -8 -7 -12 -16 -20 -21 -17 -12 8 -43 -41 -37 -57 3 -7 6 -4 6 7
1 17 3 17 11 5 9 -13 10 -13 11 0 1 8 1 19 0 23 -1 5 3 6 8 3 11 -7 53 48 44
58 -3 3 0 6 7 6 7 0 11 3 7 6 -3 3 4 15 15 26 11 11 17 26 14 34 -3 8 -2 13 3
10 8 -5 44 65 53 103 7 30 -23 21 -34 -11z"/>
<path d="M428 458 c-8 -23 13 -99 25 -95 12 4 13 41 2 85 -6 24 -20 29 -27 10z"/>
<path d="M1522 402 c-24 -25 -41 -51 -38 -58 3 -8 0 -11 -9 -8 -7 3 -22 -3
-33 -13 -10 -10 -41 -30 -67 -44 -27 -15 -50 -34 -51 -43 -3 -21 2 -20 53 10
24 14 41 29 38 35 -4 5 3 9 13 9 22 0 162 128 162 148 0 23 -25 9 -68 -36z
m-2 -32 c0 -5 -5 -10 -11 -10 -5 0 -7 5 -4 10 3 6 8 10 11 10 2 0 4 -4 4 -10z
m-135 -110 c-16 -11 -37 -20 -45 -20 -8 0 1 9 20 19 46 26 63 26 25 1z"/>
<path d="M549 440 c-7 -23 -6 -60 2 -60 5 0 8 -3 8 -7 -4 -22 2 -33 13 -27 8
5 9 2 5 -9 -3 -9 0 -23 8 -31 8 -7 11 -17 7 -22 -4 -5 1 -2 10 5 15 11 17 10
14 -6 -2 -11 5 -30 15 -44 16 -20 18 -20 13 -4 -5 15 -4 17 5 9 7 -6 14 -20
15 -30 3 -19 26 -33 26 -15 0 13 -64 99 -89 119 -9 7 -11 11 -4 8 8 -5 8 0 0
19 -7 14 -16 25 -20 25 -5 0 -5 4 -2 10 3 5 -1 22 -9 37 -8 16 -16 26 -17 23z"/>
<path d="M2365 430 c3 -5 1 -10 -5 -10 -7 0 -9 -7 -6 -16 3 -8 2 -12 -4 -9
-14 9 -12 -9 3 -24 10 -11 9 -13 -3 -9 -14 4 -50 -57 -50 -87 0 -7 -6 -18 -14
-25 -8 -6 -12 -19 -9 -27 4 -11 2 -14 -5 -9 -7 4 -12 1 -12 -8 0 -25 15 -19
31 12 8 15 17 29 20 32 10 7 65 131 73 163 5 21 3 27 -9 27 -9 0 -13 -4 -10
-10z"/>
<path d="M471 352 c-1 -7 -5 -10 -11 -7 -6 3 -7 -1 -4 -9 3 -9 10 -16 16 -16
5 0 6 -4 3 -10 -7 -11 39 -93 47 -85 3 3 8 -1 12 -10 4 -11 2 -14 -6 -9 -7 4
-8 3 -4 -4 4 -7 11 -12 17 -12 14 0 11 34 -7 56 -8 10 -12 13 -8 5 5 -9 3 -12
-5 -7 -6 4 -11 13 -10 19 3 24 -1 40 -8 33 -4 -4 -13 10 -19 31 -7 21 -12 32
-13 25z"/>
<path d="M2200 300 c-12 -12 -18 -25 -15 -30 4 -6 2 -10 -4 -10 -9 0 -41 -50
-41 -65 0 -10 29 -5 36 7 4 7 3 8 -4 4 -8 -5 -10 -2 -6 8 3 9 10 14 14 11 5
-3 14 11 20 30 6 19 15 35 19 35 4 0 8 7 8 15 0 20 -3 19 -27 -5z"/>
<path d="M1668 259 c-48 -51 -58 -69 -37 -69 19 0 106 92 91 97 -6 3 -10 9 -6
14 11 18 -2 7 -48 -42z m42 18 c0 -2 -19 -21 -42 -42 l-43 -40 40 43 c36 39
45 47 45 39z"/>
<path d="M2404 268 c-4 -13 -7 -29 -5 -37 1 -7 -2 -10 -8 -6 -7 4 -8 0 -4 -11
5 -13 3 -15 -7 -9 -9 5 -11 4 -6 -3 4 -7 11 -12 16 -12 13 0 52 79 45 90 -10
17 -23 11 -31 -12z m17 -15 c-12 -20 -14 -14 -5 12 4 9 9 14 11 11 3 -2 0 -13
-6 -23z"/>
<path d="M381 265 c1 -19 18 -51 18 -35 0 8 -4 22 -9 30 -5 8 -9 11 -9 5z"/>
<path d="M2047 253 c-13 -13 -7 -22 11 -16 14 5 15 3 5 -8 -7 -7 -13 -18 -13
-23 0 -6 7 0 16 12 19 28 3 58 -19 35z"/>
<path d="M414 228 c3 -10 0 -18 -6 -18 -9 0 -9 -3 0 -12 20 -20 35 5 16 28
-13 16 -15 16 -10 2z"/>
<path d="M1266 224 c-20 -11 -25 -19 -18 -26 8 -8 15 -8 25 0 8 7 18 8 22 4 5
-4 5 -1 0 7 -4 8 -2 17 6 22 24 15 -4 9 -35 -7z"/>
<path d="M816 205 c22 -17 44 -19 44 -5 0 5 -7 7 -15 4 -8 -4 -15 -1 -15 5 0
6 -8 11 -17 11 -15 0 -14 -2 3 -15z"/>
<path d="M2020 200 c0 -5 5 -10 11 -10 5 0 7 5 4 10 -3 6 -8 10 -11 10 -2 0
-4 -4 -4 -10z"/>
</g>
</svg>
